<svg width="16" height="31" viewBox="0 0 16 31" fill="none" xmlns="http://www.w3.org/2000/svg">
<path fill-rule="evenodd" clip-rule="evenodd" d="M8.21094 2.26498e-06C10.2805 0.000174761 11.958 1.6871 11.958 3.76758V16.0781C14.228 17.4662 15.748 19.9775 15.748 22.8486C15.7479 27.2211 12.2235 30.7676 7.87402 30.7676C3.52459 30.7676 0.000146747 27.2211 0 22.8486C5.01871e-05 19.9775 1.51997 17.4662 3.79004 16.0781V3.76758C3.79004 1.68733 5.46713 7.64132e-05 7.53711 2.26498e-06C7.76025 9.77516e-06 7.98823 -5.48363e-06 8.21094 2.26498e-06ZM7.53711 1.88379C6.50236 1.88387 5.66406 2.7273 5.66406 3.76758V5.94141H8.15918V7.19727H5.66406V11.1123H8.15918V12.3682H5.66406V17.2363C3.44434 18.1216 1.87408 20.3007 1.87402 22.8486L1.88184 23.1592C2.0374 26.2452 4.49744 28.7196 7.56543 28.876L7.87402 28.8838C11.0841 28.8838 13.7055 26.348 13.8662 23.1592L13.874 22.8486C13.874 20.3009 12.3044 18.1218 10.085 17.2363V3.76758C10.0849 2.72735 9.24565 1.88393 8.21094 1.88379C7.98821 1.88378 7.76027 1.8838 7.53711 1.88379ZM7.87402 19.2617C9.92524 19.2617 11.5877 20.933 11.5879 22.9951C11.5879 25.0574 9.92537 26.7295 7.87402 26.7295C5.82268 26.7295 4.16016 25.0574 4.16016 22.9951C4.16036 20.933 5.82281 19.2617 7.87402 19.2617Z" fill="white"/>
</svg>
