<svg width="768" height="220" viewBox="0 0 768 220" fill="none" xmlns="http://www.w3.org/2000/svg">
<rect x="425.488" width="82" height="190" fill="#0292A5"/>
<rect x="425.488" width="82" height="190" fill="url(#paint0_linear_565_6547)" fill-opacity="0.3"/>
<rect x="425.488" width="82" height="190" fill="#37B051" fill-opacity="0.5" style="mix-blend-mode:hard-light"/>
<rect x="425.488" width="82" height="190" fill="url(#paint1_linear_565_6547)"/>
<rect x="45" width="381" height="190" fill="#0292A5"/>
<rect x="45" width="381" height="190" fill="url(#paint2_linear_565_6547)" fill-opacity="0.3"/>
<rect x="45" width="381" height="190" fill="url(#paint3_linear_565_6547)" fill-opacity="0.5" style="mix-blend-mode:hard-light"/>
<rect x="45" width="381" height="190" fill="url(#paint4_linear_565_6547)"/>
<rect x="507" width="260" height="190" fill="#0292A5"/>
<rect x="507" width="260" height="190" fill="url(#paint5_linear_565_6547)" fill-opacity="0.3"/>
<rect x="507" width="260" height="190" fill="url(#paint6_linear_565_6547)" fill-opacity="0.5" style="mix-blend-mode:hard-light"/>
<rect x="507" width="260" height="190" fill="url(#paint7_linear_565_6547)"/>
<path d="M45.0011 190.835C145.737 190.931 296.587 192.846 347.802 148.009C411.765 92.0105 407.122 19.2287 475 15.0131C555.472 10.0152 423.117 190.27 767.858 190.28" stroke="white"/>
<line x1="45.501" y1="9.41504" x2="45.501" y2="191.653" stroke="white"/>
<line x1="425.988" y1="8" x2="425.988" y2="190" stroke="white" stroke-dasharray="4 4"/>
<line x1="507.988" y1="8" x2="507.988" y2="190" stroke="white" stroke-dasharray="4 4"/>
<line x1="767.5" y1="9.41504" x2="767.5" y2="191.653" stroke="white" stroke-dasharray="4 4"/>
<path d="M45.403 207.151V206.332H47.613V215.653H46.69V207.151H45.403ZM51.4479 210.817C50.9106 210.643 50.4989 210.37 50.2129 209.998C49.9356 209.625 49.7969 209.174 49.7969 208.646C49.7969 208.178 49.9139 207.762 50.1479 207.398C50.3906 207.025 50.7416 206.735 51.2009 206.527C51.6602 206.31 52.2106 206.202 52.8519 206.202C53.4932 206.202 54.0436 206.31 54.5029 206.527C54.9622 206.735 55.3089 207.025 55.5429 207.398C55.7856 207.762 55.9069 208.178 55.9069 208.646C55.9069 209.166 55.7639 209.616 55.4779 209.998C55.2006 210.379 54.7932 210.652 54.2559 210.817C54.8452 210.964 55.3089 211.246 55.6469 211.662C55.9849 212.078 56.1539 212.585 56.1539 213.183C56.1539 213.737 56.0152 214.223 55.7379 214.639C55.4692 215.046 55.0836 215.362 54.5809 215.588C54.0869 215.813 53.5106 215.926 52.8519 215.926C52.1932 215.926 51.6126 215.813 51.1099 215.588C50.6159 215.362 50.2302 215.046 49.9529 214.639C49.6842 214.223 49.5499 213.737 49.5499 213.183C49.5499 212.585 49.7189 212.078 50.0569 211.662C50.3949 211.246 50.8586 210.964 51.4479 210.817ZM55.0229 208.75C55.0229 208.178 54.8279 207.736 54.4379 207.424C54.0479 207.112 53.5192 206.956 52.8519 206.956C52.1846 206.956 51.6559 207.112 51.2659 207.424C50.8759 207.727 50.6809 208.169 50.6809 208.75C50.6809 209.287 50.8802 209.716 51.2789 210.037C51.6776 210.357 52.2019 210.518 52.8519 210.518C53.5019 210.518 54.0262 210.357 54.4249 210.037C54.8236 209.716 55.0229 209.287 55.0229 208.75ZM52.8519 211.22C52.1412 211.22 51.5606 211.38 51.1099 211.701C50.6592 212.021 50.4339 212.507 50.4339 213.157C50.4339 213.781 50.6506 214.27 51.0839 214.626C51.5172 214.981 52.1066 215.159 52.8519 215.159C53.5886 215.159 54.1736 214.981 54.6069 214.626C55.0402 214.262 55.2569 213.772 55.2569 213.157C55.2569 212.515 55.0316 212.034 54.5809 211.714C54.1389 211.384 53.5626 211.22 52.8519 211.22Z" fill="white"/>
<path d="M258.752 214.938C260.347 213.742 261.578 212.671 262.444 211.727C263.32 210.773 263.757 209.842 263.757 208.932C263.757 208.334 263.606 207.857 263.302 207.502C263.008 207.138 262.522 206.956 261.846 206.956C261.188 206.956 260.676 207.164 260.312 207.58C259.957 207.987 259.758 208.533 259.714 209.218H258.83C258.882 208.256 259.177 207.51 259.714 206.982C260.26 206.444 260.971 206.176 261.846 206.176C262.687 206.176 263.367 206.414 263.887 206.891C264.407 207.359 264.667 208.026 264.667 208.893C264.667 209.941 264.23 210.96 263.354 211.948C262.488 212.927 261.417 213.885 260.143 214.821H264.953V215.588H258.752V214.938ZM266.335 208.711C266.395 207.922 266.699 207.302 267.245 206.852C267.799 206.392 268.514 206.163 269.39 206.163C269.97 206.163 270.469 206.267 270.885 206.475C271.301 206.683 271.613 206.969 271.821 207.333C272.037 207.688 272.146 208.091 272.146 208.542C272.146 209.088 271.985 209.56 271.665 209.959C271.344 210.357 270.889 210.604 270.3 210.7V210.765C270.915 210.886 271.405 211.155 271.769 211.571C272.133 211.978 272.315 212.515 272.315 213.183C272.315 213.928 272.063 214.539 271.561 215.016C271.067 215.484 270.347 215.718 269.403 215.718C268.501 215.718 267.76 215.484 267.18 215.016C266.599 214.539 266.265 213.867 266.179 213.001H267.063C267.141 213.581 267.383 214.054 267.791 214.418C268.198 214.773 268.735 214.951 269.403 214.951C270.061 214.951 270.564 214.777 270.911 214.431C271.266 214.084 271.444 213.642 271.444 213.105C271.444 211.787 270.495 211.129 268.597 211.129H268.311V210.362H268.61C270.378 210.362 271.262 209.785 271.262 208.633C271.262 208.13 271.097 207.727 270.768 207.424C270.438 207.112 269.97 206.956 269.364 206.956C268.774 206.956 268.285 207.112 267.895 207.424C267.513 207.727 267.288 208.156 267.219 208.711H266.335Z" fill="white"/>
<path d="M419.533 214.938C421.128 213.742 422.358 212.671 423.225 211.727C424.1 210.773 424.538 209.842 424.538 208.932C424.538 208.334 424.386 207.857 424.083 207.502C423.788 207.138 423.303 206.956 422.627 206.956C421.968 206.956 421.457 207.164 421.093 207.58C420.738 207.987 420.538 208.533 420.495 209.218H419.611C419.663 208.256 419.958 207.51 420.495 206.982C421.041 206.444 421.752 206.176 422.627 206.176C423.468 206.176 424.148 206.414 424.668 206.891C425.188 207.359 425.448 208.026 425.448 208.893C425.448 209.941 425.01 210.96 424.135 211.948C423.268 212.927 422.198 213.885 420.924 214.821H425.734V215.588H419.533V214.938ZM432.731 207.047L429.104 215.653H428.181L431.847 207.125H426.647V206.345H432.731V207.047Z" fill="white"/>
<path d="M499.158 214.938C500.753 213.742 501.984 212.671 502.85 211.727C503.726 210.773 504.163 209.842 504.163 208.932C504.163 208.334 504.012 207.857 503.708 207.502C503.414 207.138 502.928 206.956 502.252 206.956C501.594 206.956 501.082 207.164 500.718 207.58C500.363 207.987 500.164 208.533 500.12 209.218H499.236C499.288 208.256 499.583 207.51 500.12 206.982C500.666 206.444 501.377 206.176 502.252 206.176C503.093 206.176 503.773 206.414 504.293 206.891C504.813 207.359 505.073 208.026 505.073 208.893C505.073 209.941 504.636 210.96 503.76 211.948C502.894 212.927 501.823 213.885 500.549 214.821H505.359V215.588H499.158V214.938ZM507.989 213.17C508.084 213.733 508.301 214.166 508.639 214.47C508.977 214.773 509.441 214.925 510.03 214.925C510.845 214.925 511.447 214.608 511.837 213.976C512.236 213.334 512.418 212.277 512.383 210.804C512.218 211.28 511.902 211.657 511.434 211.935C510.975 212.203 510.446 212.338 509.848 212.338C508.938 212.338 508.206 212.065 507.651 211.519C507.105 210.973 506.832 210.214 506.832 209.244C506.832 208.663 506.945 208.139 507.17 207.671C507.395 207.203 507.738 206.834 508.197 206.566C508.656 206.297 509.22 206.163 509.887 206.163C511.118 206.163 511.976 206.566 512.461 207.372C512.946 208.169 513.189 209.317 513.189 210.817C513.189 212.437 512.946 213.655 512.461 214.47C511.984 215.284 511.161 215.692 509.991 215.692C509.133 215.692 508.466 215.462 507.989 215.003C507.512 214.535 507.231 213.924 507.144 213.17H507.989ZM509.991 211.558C510.398 211.558 510.771 211.475 511.109 211.311C511.456 211.137 511.733 210.886 511.941 210.557C512.149 210.227 512.253 209.833 512.253 209.374C512.253 208.663 512.049 208.078 511.642 207.619C511.243 207.159 510.667 206.93 509.913 206.93C509.246 206.93 508.708 207.138 508.301 207.554C507.902 207.97 507.703 208.524 507.703 209.218C507.703 209.946 507.902 210.518 508.301 210.934C508.7 211.35 509.263 211.558 509.991 211.558Z" fill="white"/>
<path d="M752.178 208.711C752.239 207.922 752.542 207.302 753.088 206.852C753.643 206.392 754.358 206.163 755.233 206.163C755.814 206.163 756.312 206.267 756.728 206.475C757.144 206.683 757.456 206.969 757.664 207.333C757.881 207.688 757.989 208.091 757.989 208.542C757.989 209.088 757.829 209.56 757.508 209.959C757.187 210.357 756.732 210.604 756.143 210.7V210.765C756.758 210.886 757.248 211.155 757.612 211.571C757.976 211.978 758.158 212.515 758.158 213.183C758.158 213.928 757.907 214.539 757.404 215.016C756.91 215.484 756.191 215.718 755.246 215.718C754.345 215.718 753.604 215.484 753.023 215.016C752.442 214.539 752.109 213.867 752.022 213.001H752.906C752.984 213.581 753.227 214.054 753.634 214.418C754.041 214.773 754.579 214.951 755.246 214.951C755.905 214.951 756.407 214.777 756.754 214.431C757.109 214.084 757.287 213.642 757.287 213.105C757.287 211.787 756.338 211.129 754.44 211.129H754.154V210.362H754.453C756.221 210.362 757.105 209.785 757.105 208.633C757.105 208.13 756.94 207.727 756.611 207.424C756.282 207.112 755.814 206.956 755.207 206.956C754.618 206.956 754.128 207.112 753.738 207.424C753.357 207.727 753.131 208.156 753.062 208.711H752.178ZM765.697 207.112H760.939V210.44C761.156 210.136 761.472 209.889 761.888 209.699C762.304 209.499 762.755 209.4 763.24 209.4C763.951 209.4 764.532 209.547 764.982 209.842C765.433 210.128 765.758 210.505 765.957 210.973C766.157 211.432 766.256 211.926 766.256 212.455C766.256 213.061 766.139 213.612 765.905 214.106C765.68 214.591 765.329 214.977 764.852 215.263C764.384 215.549 763.799 215.692 763.097 215.692C762.205 215.692 761.481 215.462 760.926 215.003C760.372 214.535 760.034 213.906 759.912 213.118H760.809C760.922 213.69 761.182 214.132 761.589 214.444C761.997 214.756 762.499 214.912 763.097 214.912C763.851 214.912 764.419 214.691 764.8 214.249C765.19 213.798 765.385 213.204 765.385 212.468C765.385 211.748 765.19 211.189 764.8 210.791C764.41 210.383 763.851 210.18 763.123 210.18C762.621 210.18 762.179 210.297 761.797 210.531C761.416 210.765 761.134 211.081 760.952 211.48H760.094V206.319H765.697V207.112Z" fill="white"/>
<circle cx="18" cy="32" r="17.5" fill="url(#paint8_radial_565_6547)" stroke="white"/>
<path d="M16.8642 38.017C16.7419 39.9335 15.153 39.8598 16.1919 42.2186C17.9846 42.8083 21.4844 43.6338 21.1422 42.2186C20.7144 40.4495 18.942 42.2186 19.4921 40.3758C20.0421 38.533 19.0032 36.3217 19.8588 36.3217C20.7144 36.3217 20.4088 36.3217 21.57 37.2062C22.7311 38.0907 24.3201 38.017 25.2979 38.017C26.2758 38.017 26.3369 36.248 24.809 36.3217C23.2812 36.3954 21.9978 35.5109 21.57 34.7C21.1422 33.8892 21.2644 32.931 23.1589 31.7516C25.0535 30.5722 24.0145 29.6877 23.5867 30.0562C23.1589 30.4247 22.3644 30.5722 22.6089 28.582C22.8534 26.5918 23.8312 27.9186 24.3201 26.7392C24.809 25.5599 23.9534 25.4861 23.1589 25.4861C22.3644 25.4861 21.1422 26.3707 20.7755 27.9186C20.4088 29.4666 21.2644 30.8671 20.4088 31.7516C19.5532 32.6361 18.2087 31.7516 17.292 30.0562C16.3752 28.3608 17.842 28.066 16.1919 25.4861C14.5418 22.9062 16.1919 25.0438 15.0307 22.3165C13.8696 19.5892 13.1362 21.8743 13.564 22.3165C13.9918 22.7588 14.2974 24.1593 13.1362 24.1593C11.975 24.1593 11.3028 22.5377 10.5083 21.8743C9.71381 21.2109 9.95826 21.948 10.5083 23.4222C11.0583 24.8964 11.6695 25.0439 13.1362 25.4861C14.6029 25.9284 15.153 28.7294 15.0307 30.0562C14.9085 31.383 14.6641 31.7516 13.9307 31.7516C13.1973 31.7516 13.0751 29.3928 11.6695 29.098C10.2638 28.8031 11.425 30.5722 12.0361 31.7516C12.6473 32.931 13.9918 33.7418 15.0307 34.7C16.0697 35.6583 16.9864 36.1005 16.8642 38.017Z" fill="#FF55C9"/>
<circle cx="18" cy="185" r="17.5" fill="url(#paint9_radial_565_6547)" stroke="white"/>
<path d="M16.8642 191.017C16.7419 192.934 15.153 192.86 16.1919 195.219C17.9846 195.808 21.4844 196.634 21.1422 195.219C20.7144 193.449 18.942 195.219 19.4921 193.376C20.0421 191.533 19.0032 189.322 19.8588 189.322C20.7144 189.322 20.4088 189.322 21.57 190.206C22.7311 191.091 24.3201 191.017 25.2979 191.017C26.2758 191.017 26.3369 189.248 24.809 189.322C23.2812 189.395 21.9978 188.511 21.57 187.7C21.1422 186.889 21.2644 185.931 23.1589 184.752C25.0535 183.572 24.0145 182.688 23.5867 183.056C23.1589 183.425 22.3644 183.572 22.6089 181.582C22.8534 179.592 23.8312 180.919 24.3201 179.739C24.809 178.56 23.9534 178.486 23.1589 178.486C22.3644 178.486 21.1422 179.371 20.7755 180.919C20.4088 182.467 21.2644 183.867 20.4088 184.752C19.5532 185.636 18.2087 184.752 17.292 183.056C16.3752 181.361 17.842 181.066 16.1919 178.486C14.5418 175.906 16.1919 178.044 15.0307 175.317C13.8696 172.589 13.1362 174.874 13.564 175.317C13.9918 175.759 14.2974 177.159 13.1362 177.159C11.975 177.159 11.3028 175.538 10.5083 174.874C9.71381 174.211 9.95826 174.948 10.5083 176.422C11.0583 177.896 11.6695 178.044 13.1362 178.486C14.6029 178.928 15.153 181.729 15.0307 183.056C14.9085 184.383 14.6641 184.752 13.9307 184.752C13.1973 184.752 13.0751 182.393 11.6695 182.098C10.2638 181.803 11.425 183.572 12.0361 184.752C12.6473 185.931 13.9918 186.742 15.0307 187.7C16.0697 188.658 16.9864 189.101 16.8642 191.017Z" fill="#625858"/>
<defs>
<linearGradient id="paint0_linear_565_6547" x1="466.488" y1="0" x2="466.488" y2="190" gradientUnits="userSpaceOnUse">
<stop stop-color="white" stop-opacity="0"/>
<stop offset="1" stop-color="white"/>
</linearGradient>
<linearGradient id="paint1_linear_565_6547" x1="466.488" y1="0" x2="466.488" y2="190" gradientUnits="userSpaceOnUse">
<stop stop-color="#0292A5"/>
<stop offset="0.177885" stop-color="#0292A5" stop-opacity="0.798077"/>
<stop offset="0.639423" stop-color="#0292A5" stop-opacity="0"/>
</linearGradient>
<linearGradient id="paint2_linear_565_6547" x1="235.5" y1="0" x2="235.5" y2="190" gradientUnits="userSpaceOnUse">
<stop stop-color="white" stop-opacity="0"/>
<stop offset="1" stop-color="white"/>
</linearGradient>
<linearGradient id="paint3_linear_565_6547" x1="45" y1="95" x2="426" y2="95" gradientUnits="userSpaceOnUse">
<stop offset="0.605769" stop-color="#FF0000"/>
<stop offset="0.850962" stop-color="#E7791B" stop-opacity="0.83"/>
<stop offset="1" stop-color="#37B051"/>
</linearGradient>
<linearGradient id="paint4_linear_565_6547" x1="235.5" y1="0" x2="235.5" y2="190" gradientUnits="userSpaceOnUse">
<stop stop-color="#0292A5"/>
<stop offset="0.177885" stop-color="#0292A5" stop-opacity="0.798077"/>
<stop offset="0.639423" stop-color="#0292A5" stop-opacity="0"/>
</linearGradient>
<linearGradient id="paint5_linear_565_6547" x1="637" y1="0" x2="637" y2="190" gradientUnits="userSpaceOnUse">
<stop stop-color="white" stop-opacity="0"/>
<stop offset="1" stop-color="white"/>
</linearGradient>
<linearGradient id="paint6_linear_565_6547" x1="507" y1="95" x2="767" y2="95" gradientUnits="userSpaceOnUse">
<stop stop-color="#37B051"/>
<stop offset="0.0961538" stop-color="#E7791B" stop-opacity="0.83"/>
<stop offset="0.403846" stop-color="#FF0000"/>
</linearGradient>
<linearGradient id="paint7_linear_565_6547" x1="637" y1="0" x2="637" y2="190" gradientUnits="userSpaceOnUse">
<stop stop-color="#0292A5"/>
<stop offset="0.177885" stop-color="#0292A5" stop-opacity="0.798077"/>
<stop offset="0.639423" stop-color="#0292A5" stop-opacity="0"/>
</linearGradient>
<radialGradient id="paint8_radial_565_6547" cx="0" cy="0" r="1" gradientUnits="userSpaceOnUse" gradientTransform="translate(18 32) rotate(90) scale(18)">
<stop stop-color="#1A616E"/>
<stop offset="1" stop-color="#0E2A2E"/>
</radialGradient>
<radialGradient id="paint9_radial_565_6547" cx="0" cy="0" r="1" gradientUnits="userSpaceOnUse" gradientTransform="translate(18 185) rotate(90) scale(18)">
<stop stop-color="#1A616E"/>
<stop offset="1" stop-color="#452C2C"/>
</radialGradient>
</defs>
</svg>
